<svg width="21" height="21" viewBox="0 0 21 21" fill="none" xmlns="http://www.w3.org/2000/svg">
<path d="M3 5.5H4.66667M4.66667 5.5H18M4.66667 5.5L4.66667 17.1667C4.66667 17.6087 4.84226 18.0326 5.15482 18.3452C5.46738 18.6577 5.89131 18.8333 6.33333 18.8333H14.6667C15.1087 18.8333 15.5326 18.6577 15.8452 18.3452C16.1577 18.0326 16.3333 17.6087 16.3333 17.1667V5.5M7.16667 5.5V3.83333C7.16667 3.39131 7.34226 2.96738 7.65482 2.65482C7.96738 2.34226 8.39131 2.16667 8.83333 2.16667H12.1667C12.6087 2.16667 13.0326 2.34226 13.3452 2.65482C13.6577 2.96738 13.8333 3.39131 13.8333 3.83333V5.5M8.83333 9.66667V14.6667M12.1667 9.66667V14.6667" stroke="#1E1E1E" stroke-width="2" stroke-linecap="round" stroke-linejoin="round"/>
</svg>
