<svg width="38" height="33" viewBox="0 0 38 33" fill="none" xmlns="http://www.w3.org/2000/svg">
<path d="M17.1399 5.83331H6.36628C5.54989 5.83331 4.76694 6.11426 4.18967 6.61436C3.61239 7.11446 3.28809 7.79273 3.28809 8.49998V27.1666C3.28809 27.8739 3.61239 28.5522 4.18967 29.0523C4.76694 29.5524 5.54989 29.8333 6.36628 29.8333H27.9136C28.73 29.8333 29.5129 29.5524 30.0902 29.0523C30.6675 28.5522 30.9918 27.8739 30.9918 27.1666V17.8333M28.6831 3.83331C29.2954 3.30288 30.1259 3.00488 30.9918 3.00488C31.8577 3.00488 32.6881 3.30288 33.3004 3.83331C33.9127 4.36374 34.2567 5.08316 34.2567 5.83331C34.2567 6.58346 33.9127 7.30288 33.3004 7.83331L18.679 20.5L12.5227 21.8333L14.0617 16.5L28.6831 3.83331Z" stroke="#004A61" stroke-width="3" stroke-linecap="round" stroke-linejoin="round"/>
</svg>
