<svg width="45" height="37" viewBox="0 0 45 37" fill="none" xmlns="http://www.w3.org/2000/svg">
<rect y="0.5" width="45" height="36" rx="10" fill="#DEC717"/>
<path d="M26.6665 10.9999C26.8854 10.7811 27.1452 10.6074 27.4312 10.489C27.7171 10.3705 28.0236 10.3096 28.3332 10.3096C28.6427 10.3096 28.9492 10.3705 29.2352 10.489C29.5211 10.6074 29.781 10.7811 29.9998 10.9999C30.2187 11.2188 30.3923 11.4786 30.5108 11.7646C30.6292 12.0506 30.6902 12.3571 30.6902 12.6666C30.6902 12.9761 30.6292 13.2826 30.5108 13.5686C30.3923 13.8546 30.2187 14.1144 29.9998 14.3333L18.7498 25.5833L14.1665 26.8333L15.4165 22.2499L26.6665 10.9999Z" stroke="white" stroke-width="2" stroke-linecap="round" stroke-linejoin="round"/>
</svg>
