<svg width="21" height="21" viewBox="0 0 21 21" fill="none" xmlns="http://www.w3.org/2000/svg">
<path d="M9.66699 3.83333H3.83366C3.39163 3.83333 2.96771 4.00893 2.65515 4.32149C2.34259 4.63405 2.16699 5.05797 2.16699 5.5V17.1667C2.16699 17.6087 2.34259 18.0326 2.65515 18.3452C2.96771 18.6577 3.39163 18.8333 3.83366 18.8333H15.5003C15.9424 18.8333 16.3663 18.6577 16.6788 18.3452C16.9914 18.0326 17.167 17.6087 17.167 17.1667V11.3333M15.917 2.58333C16.2485 2.25181 16.6982 2.06557 17.167 2.06557C17.6358 2.06557 18.0855 2.25181 18.417 2.58333C18.7485 2.91485 18.9348 3.36449 18.9348 3.83333C18.9348 4.30217 18.7485 4.75181 18.417 5.08333L10.5003 13L7.16699 13.8333L8.00033 10.5L15.917 2.58333Z" stroke="#1E1E1E" stroke-width="2" stroke-linecap="round" stroke-linejoin="round"/>
</svg>
