<svg width="48" height="49" viewBox="0 0 48 49" fill="none" xmlns="http://www.w3.org/2000/svg">
<path d="M12 12.5H12.02M12 36.5H12.02M8 4.5H40C42.2091 4.5 44 6.29086 44 8.5V16.5C44 18.7091 42.2091 20.5 40 20.5H8C5.79086 20.5 4 18.7091 4 16.5V8.5C4 6.29086 5.79086 4.5 8 4.5ZM8 28.5H40C42.2091 28.5 44 30.2909 44 32.5V40.5C44 42.7091 42.2091 44.5 40 44.5H8C5.79086 44.5 4 42.7091 4 40.5V32.5C4 30.2909 5.79086 28.5 8 28.5Z" stroke="#004A75" stroke-width="4" stroke-linecap="round" stroke-linejoin="round"/>
</svg>
