<svg width="45" height="36" viewBox="0 0 45 36" fill="none" xmlns="http://www.w3.org/2000/svg">
<rect width="45" height="36" rx="10" fill="#F3AF42"/>
<path d="M24.1668 9.66667H17.5002C17.0581 9.66667 16.6342 9.84227 16.3217 10.1548C16.0091 10.4674 15.8335 10.8913 15.8335 11.3333V24.6667C15.8335 25.1087 16.0091 25.5326 16.3217 25.8452C16.6342 26.1577 17.0581 26.3333 17.5002 26.3333H27.5002C27.9422 26.3333 28.3661 26.1577 28.6787 25.8452C28.9912 25.5326 29.1668 25.1087 29.1668 24.6667V14.6667M24.1668 9.66667L29.1668 14.6667M24.1668 9.66667L24.1668 14.6667H29.1668M25.8335 18.8333H19.1668M25.8335 22.1667H19.1668M20.8335 15.5H19.1668" stroke="white" stroke-width="2" stroke-linecap="round" stroke-linejoin="round"/>
</svg>
