<svg width="21" height="21" viewBox="0 0 21 21" fill="none" xmlns="http://www.w3.org/2000/svg">
<path d="M8.8335 11.3333C9.19138 11.8118 9.64796 12.2076 10.1723 12.4941C10.6966 12.7806 11.2764 12.9509 11.8724 12.9936C12.4683 13.0363 13.0665 12.9503 13.6263 12.7415C14.1861 12.5327 14.6944 12.2059 15.1168 11.7833L17.6168 9.28333C18.3758 8.49749 18.7958 7.44498 18.7863 6.35249C18.7768 5.26 18.3386 4.21495 17.5661 3.44242C16.7935 2.66989 15.7485 2.23168 14.656 2.22219C13.5635 2.21269 12.511 2.63267 11.7252 3.39166L10.2918 4.81666M12.1668 9.66666C11.809 9.18822 11.3524 8.79234 10.828 8.50588C10.3037 8.21942 9.72391 8.04907 9.12796 8.00638C8.53201 7.9637 7.93384 8.04969 7.37405 8.25851C6.81425 8.46733 6.3059 8.7941 5.8835 9.21666L3.3835 11.7167C2.62451 12.5025 2.20453 13.555 2.21402 14.6475C2.22352 15.74 2.66172 16.785 3.43426 17.5576C4.20679 18.3301 5.25184 18.7683 6.34433 18.7778C7.43682 18.7873 8.48932 18.3673 9.27517 17.6083L10.7002 16.1833" stroke="#1E1E1E" stroke-width="2" stroke-linecap="round" stroke-linejoin="round"/>
</svg>
