<svg width="17" height="17" viewBox="0 0 17 17" fill="none" xmlns="http://www.w3.org/2000/svg">
<path d="M4.95833 7.79167V4.95833C4.95833 4.01903 5.33147 3.11819 5.99566 2.454C6.65985 1.78981 7.56069 1.41667 8.5 1.41667C9.43931 1.41667 10.3401 1.78981 11.0043 2.454C11.6685 3.11819 12.0417 4.01903 12.0417 4.95833V7.79167M3.54167 7.79167H13.4583C14.2407 7.79167 14.875 8.42593 14.875 9.20834V14.1667C14.875 14.9491 14.2407 15.5833 13.4583 15.5833H3.54167C2.75926 15.5833 2.125 14.9491 2.125 14.1667V9.20834C2.125 8.42593 2.75926 7.79167 3.54167 7.79167Z" stroke="#1E1E1E" stroke-width="2" stroke-linecap="round" stroke-linejoin="round"/>
</svg>
