<svg width="24" height="20" viewBox="0 0 24 20" fill="none" xmlns="http://www.w3.org/2000/svg">
<path d="M22 10H16L14 13H10L8 10H2M22 10V16C22 16.5304 21.7893 17.0391 21.4142 17.4142C21.0391 17.7893 20.5304 18 20 18H4C3.46957 18 2.96086 17.7893 2.58579 17.4142C2.21071 17.0391 2 16.5304 2 16V10M22 10L18.55 3.11C18.3844 2.77679 18.1292 2.49637 17.813 2.30028C17.4967 2.10419 17.1321 2.0002 16.76 2H7.24C6.86792 2.0002 6.50326 2.10419 6.18704 2.30028C5.87083 2.49637 5.61558 2.77679 5.45 3.11L2 10" stroke="#004A75" stroke-width="2.5" stroke-linecap="round" stroke-linejoin="round"/>
</svg>
