<svg width="17" height="17" viewBox="0 0 17 17" fill="none" xmlns="http://www.w3.org/2000/svg">
<path d="M2.83329 14.1667C2.44371 14.1667 2.1102 14.0279 1.83277 13.7505C1.55534 13.4731 1.41663 13.1396 1.41663 12.75V4.24999C1.41663 3.86041 1.55534 3.5269 1.83277 3.24947C2.1102 2.97204 2.44371 2.83333 2.83329 2.83333H14.1666C14.5562 2.83333 14.8897 2.97204 15.1671 3.24947C15.4446 3.5269 15.5833 3.86041 15.5833 4.24999V12.75C15.5833 13.1396 15.4446 13.4731 15.1671 13.7505C14.8897 14.0279 14.5562 14.1667 14.1666 14.1667H2.83329ZM8.49996 9.20833L2.83329 5.66666V12.75H14.1666V5.66666L8.49996 9.20833ZM8.49996 7.79166L14.1666 4.24999H2.83329L8.49996 7.79166ZM2.83329 5.66666V4.24999V12.75V5.66666Z" fill="#1D1B20"/>
</svg>
