<svg width="24" height="22" viewBox="0 0 24 22" fill="none" xmlns="http://www.w3.org/2000/svg">
<path d="M16 20V18C16 16.9391 15.5786 15.9217 14.8284 15.1716C14.0783 14.4214 13.0609 14 12 14H5C3.93913 14 2.92172 14.4214 2.17157 15.1716C1.42143 15.9217 1 16.9391 1 18V20M20 7V13M23 10H17M12.5 6C12.5 8.20914 10.7091 10 8.5 10C6.29086 10 4.5 8.20914 4.5 6C4.5 3.79086 6.29086 2 8.5 2C10.7091 2 12.5 3.79086 12.5 6Z" stroke="#DA8804" stroke-width="2.5" stroke-linecap="round" stroke-linejoin="round"/>
</svg>
