<svg width="49" height="48" viewBox="0 0 49 48" fill="none" xmlns="http://www.w3.org/2000/svg">
<g clip-path="url(#clip0_1625_13401)">
<path d="M46.9229 7.99991V19.9999M46.9229 19.9999H34.9229M46.9229 19.9999L37.6429 11.2799C35.4934 9.12933 32.8341 7.55832 29.9132 6.71345C26.9924 5.86859 23.9051 5.77741 20.9394 6.44842C17.9738 7.11944 15.2265 8.53077 12.9538 10.5507C10.6811 12.5707 8.95719 15.1335 7.94285 17.9999M2.92285 39.9999V27.9999M2.92285 27.9999H14.9229M2.92285 27.9999L12.2029 36.7199C14.3523 38.8705 17.0116 40.4415 19.9325 41.2864C22.8533 42.1312 25.9406 42.2224 28.9063 41.5514C31.8719 40.8804 34.6193 39.469 36.8919 37.4491C39.1646 35.4291 40.8885 32.8663 41.9029 29.9999" stroke="#10870A" stroke-width="4" stroke-linecap="round" stroke-linejoin="round"/>
</g>
<defs>
<clipPath id="clip0_1625_13401">
<rect width="48" height="48" fill="white" transform="translate(0.922852)"/>
</clipPath>
</defs>
</svg>
