<svg width="56" height="48" viewBox="0 0 56 48" fill="none" xmlns="http://www.w3.org/2000/svg">
<rect width="56" height="48" rx="10" fill="#004A75"/>
<g clip-path="url(#clip0_1610_13023)">
<path d="M46.3337 10.6666V20.6666M46.3337 20.6666H36.3337M46.3337 20.6666L38.6003 13.4C36.8091 11.6078 34.593 10.2986 32.159 9.59459C29.7249 8.89053 27.1522 8.81455 24.6808 9.37373C22.2094 9.93291 19.92 11.109 18.0261 12.7923C16.1322 14.4756 14.6956 16.6113 13.8503 19M9.66699 37.3333V27.3333M9.66699 27.3333H19.667M9.66699 27.3333L17.4003 34.6C19.1916 36.3921 21.4076 37.7013 23.8417 38.4053C26.2757 39.1094 28.8485 39.1854 31.3198 38.6262C33.7912 38.067 36.0807 36.8909 37.9745 35.2076C39.8684 33.5243 41.305 31.3887 42.1503 29" stroke="white" stroke-width="3.5" stroke-linecap="round" stroke-linejoin="round"/>
</g>
<defs>
<clipPath id="clip0_1610_13023">
<rect width="40" height="40" fill="white" transform="translate(8 4)"/>
</clipPath>
</defs>
</svg>
